<svg xmlns="http://www.w3.org/2000/svg" width="369.2175" height="512.34" viewBox="0 0 369.2175 512.34"><g id="Layer_2" data-name="Layer 2"><g id="Layer_1-2" data-name="Layer 1"><path d="M184.62,34.62Q213.075,17.31,241.52,0q.015,42.42,0,84.84c20.72-8.79,42.87-13.4,64.92-17.39q.015,36.48.01,72.96c20.62-4.31,41.73-5.69,62.76-5.8q.015,131.22,0,262.45-31.38,0-62.77,0,.015,44.565,0,89.12-38.85-21.6-77.74-43.12Q210.295,472.025,191.93,501c-2.55,3.75-4.59,7.87-7.54,11.34-14.5-23.16-29.27-46.16-43.86-69.27q-38.895,21.525-77.76,43.1V397.06q-31.38-.015-62.77,0V134.61c21.03.11,42.15,1.5,62.77,5.8q0-36.48.01-72.96c22.05,3.99,44.2,8.59,64.91,17.4q-.015-42.42-.01-84.84C146.69,11.49,165.62,23.11,184.62,34.62ZM140.53,23.66q-.03,41.055,0,82.1C120.09,95.19,97.84,88.87,75.62,83.28q-.015,37.26,0,74.51c-20.49-5.55-41.64-8.21-62.78-9.58V384.22q31.38.015,62.77.01v79.92q32.445-18,64.9-35.99,22.095,34.065,44.09,68.2,22.065-34.095,44.1-68.2,32.445,18,64.9,35.98.015-39.96.01-79.92,31.38.015,62.76,0,.015-118.005.01-236.01c-21.15,1.36-42.3,4.02-62.78,9.58q0-37.245,0-74.51c-22.22,5.59-44.47,11.9-64.91,22.47q0-41.04-.01-82.09-22.02,13.425-44.06,26.83Q162.585,37.065,140.53,23.66Z"/><path d="M155.51,56.16q14.58,8.82,29.12,17.7,14.505-8.895,29.07-17.7.03,29.055,0,58.12c-10.07,6.22-19.65,13.19-29.09,20.31-9.45-7.13-19.06-14.08-29.11-20.34Q155.515,85.21,155.51,56.16Z"/><path d="M91.31,108.73c17.16,3.95,34.02,9.78,49.21,18.81V187.5A205.1712,205.1712,0,0,0,91.3,162.62Q91.315,135.665,91.31,108.73Z"/><path d="M228.69,127.55c15.18-9.04,32.05-14.86,49.21-18.82q.015,26.955.01,53.91a204.7063,204.7063,0,0,0-49.22,24.85Q228.69,157.52,228.69,127.55Z"/><path d="M155.51,137.56c10.16,7.58,19.71,15.94,29.1,24.44,9.39-8.51,18.93-16.87,29.09-24.44.02,20.4-.01,40.79.02,61.19a237.5407,237.5407,0,0,0-29.11,28.94,235.8887,235.8887,0,0,0-29.11-28.91Q155.515,168.165,155.51,137.56Z"/><path d="M27.52,172.58a190.45,190.45,0,0,1,48.09,8.47q.015,91.95.01,183.9-24.06.015-48.1,0Q27.52,268.77,27.52,172.58Z"/><path d="M293.61,181.04a191.6368,191.6368,0,0,1,48.07-8.47q.045,96.195.02,192.38-24.045.015-48.1,0Q293.615,273,293.61,181.04Z"/><path d="M91.31,186.56a196.3052,196.3052,0,0,1,49.17,28.23c.09,48.04.01,96.07.04,144.1h14.99q0-65.355,0-130.7a189.9186,189.9186,0,0,1,26.73,33.41,21.9507,21.9507,0,0,0,2.59,3.34,195.0562,195.0562,0,0,1,28.88-36.75q.015,65.355,0,130.7h14.98q0-72-.01-144.01a193.4515,193.4515,0,0,1,49.22-28.32q.03,89.205.01,178.39c-12.19.08-24.39-.16-36.58.13-6.67,10.74-13.67,21.28-20.51,31.92q-18.12-10.065-36.25-20.08c-12.05,6.71-24.13,13.37-36.19,20.08q-10.35-16.02-20.69-32.04-18.195-.015-36.39-.01Q91.33,275.76,91.31,186.56Z"/><path d="M91.3,384.22c9.06.01,18.11-.01,27.16.02q6.96,10.8,13.96,21.6c-13.69,7.63-27.42,15.19-41.11,22.81Q91.295,406.435,91.3,384.22Z"/><path d="M250.69,384.28c9.07-.12,18.14-.02,27.22-.06v44.43q-20.55-11.415-41.11-22.8C241.41,398.64,246.13,391.51,250.69,384.28Z"/><path d="M161.11,416.69c7.84-4.35,15.66-8.74,23.53-13.03,7.81,4.33,15.61,8.69,23.45,12.98-7.77,12.18-15.66,24.27-23.49,36.41Z"/></g></g></svg>