<?xml version="1.0" encoding="utf-8"?>
<!-- Generator: Adobe Illustrator 24.1.1, SVG Export Plug-In . SVG Version: 6.00 Build 0)  -->
<svg version="1.1" id="Layer_1" xmlns="http://www.w3.org/2000/svg" xmlns:xlink="http://www.w3.org/1999/xlink" x="0px" y="0px"
	 viewBox="0 0 1920 1080" style="enable-background:new 0 0 1920 1080;" xml:space="preserve">
<style type="text/css">
	.st0{fill:#FF4785;}
	.st1{filter:url(#Adobe_OpacityMaskFilter);}
	.st2{fill:#FFFFFF;}
	.st3{mask:url(#mask-2_1_);fill:#FFFFFF;}
</style>
<g>
	<g>
		<path id="path-1_1_" class="st0" d="M98.6,920.2L70.6,175.6c-0.9-24.6,17.9-45.4,42.5-47L746.5,89c25-1.6,46.5,17.4,48.1,42.4
			c0.1,0.9,0.1,1.9,0.1,2.8v811.5c0,25.1-20.3,45.4-45.4,45.4c-0.7,0-1.4,0-2,0l-605.5-27.2C118.3,962.8,99.5,943.8,98.6,920.2
			L98.6,920.2z"/>
	</g>
	<defs>
		<filter id="Adobe_OpacityMaskFilter" filterUnits="userSpaceOnUse" x="257.1" y="88.9" width="443.3" height="731.2">
			<feColorMatrix  type="matrix" values="1 0 0 0 0  0 1 0 0 0  0 0 1 0 0  0 0 0 1 0"/>
		</filter>
	</defs>
	<mask maskUnits="userSpaceOnUse" x="257.1" y="88.9" width="443.3" height="731.2" id="mask-2_1_">
		<g class="st1">
			<path id="path-1_2_" class="st2" d="M98.6,920.2L70.6,175.6c-0.9-24.6,17.9-45.4,42.5-47L746.5,89c25-1.6,46.5,17.4,48.1,42.4
				c0.1,0.9,0.1,1.9,0.1,2.8v811.5c0,25.1-20.3,45.4-45.4,45.4c-0.7,0-1.4,0-2,0l-605.5-27.2C118.3,962.8,99.5,943.8,98.6,920.2
				L98.6,920.2z"/>
		</g>
	</mask>
	<path class="st3" d="M605.3,199.8l4.3-104.1l87-6.8l3.7,107.3c0.1,3.7-2.8,6.9-6.5,7c-1.6,0.1-3.2-0.5-4.4-1.4l-33.5-26.4
		l-39.7,30.1c-3,2.3-7.2,1.7-9.5-1.3C605.7,202.9,605.2,201.4,605.3,199.8z M494.1,429c0,17.6,118.9,9.2,134.8-3.2
		c0-120.2-64.5-183.3-182.6-183.3s-184.2,64.1-184.2,160.3c0,167.5,226.1,170.8,226.1,262.1c0,25.7-12.6,40.9-40.2,40.9
		c-36,0-50.2-18.4-48.6-80.9c0-13.6-137.3-17.8-141.5,0c-10.7,151.5,83.7,195.2,191.8,195.2c104.7,0,186.8-55.8,186.8-156.8
		c0-179.6-229.5-174.8-229.5-263.7c0-36.1,26.8-40.9,42.7-40.9C466.4,358.7,496.6,361.6,494.1,429z"/>
</g>
</svg>
